<svg xmlns="http://www.w3.org/2000/svg" viewBox="0 0 200 60" width="200" height="60">
  <path d="M40 10 C 40 10, 30 10, 30 20 L 30 35 C 30 40, 25 45, 20 45 L 20 20 C 20 10, 30 5, 40 10 Z" fill="#dc3545" />
  <path d="M50 10 C 50 10, 60 10, 60 20 L 60 35 C 60 40, 65 45, 70 45 L 70 20 C 70 10, 60 5, 50 10 Z" fill="#dc3545" />
  <path d="M45 5 C 35 5, 25 15, 25 25 L 25 50 C 25 55, 30 55, 35 55 L 55 55 C 60 55, 65 55, 65 50 L 65 25 C 65 15, 55 5, 45 5 Z" fill="#dc3545" />
  <text x="85" y="35" font-family="Arial" font-weight="bold" font-size="24" fill="#333">LifeStream</text>
</svg>