<svg xmlns="http://www.w3.org/2000/svg" width="200" height="200" viewBox="0 0 200 200">
  <!-- Background Circle -->
  <circle cx="100" cy="100" r="95" fill="#f0f4f8" stroke="#e1e8ed" stroke-width="2"/>
  
  <!-- Face -->
  <circle cx="100" cy="85" r="40" fill="#ffe0b2"/>
  
  <!-- Hair -->
  <path d="M60 70 Q 80 30 100 40 Q 120 30 140 70 Q 140 90 140 90 Q 120 100 100 100 Q 80 100 60 90 Q 60 70 60 70" fill="#212121"/>
  
  <!-- Eyes -->
  <circle cx="85" cy="80" r="5" fill="#333"/>
  <circle cx="115" cy="80" r="5" fill="#333"/>
  
  <!-- Smile -->
  <path d="M85 95 Q 100 110 115 95" fill="none" stroke="#333" stroke-width="3" stroke-linecap="round"/>
  
  <!-- Body/Shoulders -->
  <path d="M60 125 Q 100 145 140 125 L 150 170 L 50 170 Z" fill="#81c784"/>
  
  <!-- Stethoscope -->
  <path d="M85 130 Q 75 140 85 150 Q 95 160 105 150 Q 115 140 105 130" fill="none" stroke="#333" stroke-width="3"/>
  <circle cx="95" cy="150" r="5" fill="#333"/>
</svg>