<svg xmlns="http://www.w3.org/2000/svg" width="200" height="200" viewBox="0 0 200 200">
  <!-- Background Circle -->
  <circle cx="100" cy="100" r="95" fill="#f0f4f8" stroke="#e1e8ed" stroke-width="2"/>
  
  <!-- Face -->
  <circle cx="100" cy="85" r="40" fill="#ffccbc"/>
  
  <!-- Hair -->
  <path d="M60 85 Q 60 45 100 45 Q 140 45 140 85" fill="#8d6e63"/>
  <path d="M60 85 Q 70 95 80 85" fill="#8d6e63"/>
  <path d="M140 85 Q 130 95 120 85" fill="#8d6e63"/>
  
  <!-- Eyes -->
  <circle cx="85" cy="80" r="5" fill="#333"/>
  <circle cx="115" cy="80" r="5" fill="#333"/>
  
  <!-- Smile -->
  <path d="M80 95 Q 100 115 120 95" fill="none" stroke="#333" stroke-width="3" stroke-linecap="round"/>
  
  <!-- Body/Shoulders -->
  <path d="M60 125 Q 100 145 140 125 L 150 170 L 50 170 Z" fill="#9575cd"/>
  
  <!-- Blood Bag -->
  <path d="M90 135 L 110 135 L 110 160 Q 100 165 90 160 Z" fill="#ef5350" stroke="#333" stroke-width="1"/>
  <path d="M95 135 L 95 130 L 105 130 L 105 135" fill="none" stroke="#333" stroke-width="2"/>
  <text x="95" y="150" font-family="Arial" font-size="10" fill="white">A+</text>
</svg>